<svg width="15" height="15" viewBox="0 0 15 15" fill="none" xmlns="http://www.w3.org/2000/svg">
<path fill-rule="evenodd" clip-rule="evenodd" d="M8.43739 6.56246V0.93827C8.43739 0.420735 8.0177 0 7.49998 0C6.98315 0 6.56246 0.41999 6.56246 0.93827V6.56246H0.93827C0.420735 6.56246 0 6.98215 0 7.49998C0 8.01666 0.41999 8.4374 0.93827 8.4374H6.56246V14.0616C6.56246 14.5791 6.98215 15 7.49998 15C8.01666 15 8.43739 14.5799 8.43739 14.0616V8.4374H14.0616C14.5791 8.4374 15 8.0177 15 7.49998C15 6.98315 14.5799 6.56246 14.0616 6.56246H8.43739Z" fill="#B4B4B4"/>
</svg>
