<svg width="15" height="15" viewBox="0 0 15 15" fill="none" xmlns="http://www.w3.org/2000/svg">
<path d="M7.5 0C11.6049 0 15 3.3447 15 7.5C15 11.6049 11.6046 15 7.5 15C3.34454 15 0 11.6046 0 7.5C0 3.34454 3.3447 0 7.5 0ZM5.97974 8.96979C7.04399 6.94263 8.56426 5.2702 10.5914 4.10489C11.6557 3.44609 12.3145 4.96636 11.5543 5.32118C9.22318 6.43608 7.55088 9.07135 6.43581 11.3011C6.13174 11.8079 5.32091 11.7573 5.01684 11.1997C4.56073 10.2875 4.61137 8.66587 3.39518 8.00708C2.58435 7.55097 3.59786 6.18274 4.56073 6.94282C5.16887 7.44958 5.67563 8.15912 5.9797 8.96998L5.97974 8.96979ZM7.5 1.41887C4.10455 1.41887 1.41887 4.10482 1.41887 7.5C1.41887 10.8447 4.10482 13.5811 7.5 13.5811C10.8447 13.5811 13.5811 10.8446 13.5811 7.5C13.5811 4.10455 10.8446 1.41887 7.5 1.41887Z" fill="#B4B4B4"/>
</svg>
