<svg width="15" height="15" viewBox="0 0 15 15" fill="none" xmlns="http://www.w3.org/2000/svg">
<path d="M12.4537 1.25751H11.0607V0.29849C11.0607 0.134165 10.9246 0 10.7579 0C10.5913 0 10.4552 0.134162 10.4552 0.29849V1.25751H4.54481V0.29849C4.54481 0.134165 4.40872 0 4.24203 0C4.07533 0 3.93924 0.134162 3.93924 0.29849V1.25751H2.54624C1.14311 1.25751 0 2.38257 0 3.76763V12.4899C0 13.8731 1.14125 15 2.54624 15H12.4538C13.8569 15 15 13.8749 15 12.4899V3.76763C15 2.3844 13.8587 1.25751 12.4537 1.25751ZM10.4536 2.67105V3.48098C10.4536 3.6453 10.5897 3.77947 10.7564 3.77947C10.9231 3.77947 11.0592 3.64531 11.0592 3.48098V2.67105C11.3925 2.79352 11.6323 3.11033 11.6323 3.48098C11.6323 3.95719 11.2394 4.34445 10.7564 4.34445C10.2733 4.34445 9.88051 3.95716 9.88051 3.48098C9.88051 3.11046 10.1187 2.79353 10.4536 2.67105H10.4536ZM3.93928 2.67105V3.48098C3.93928 3.6453 4.07537 3.77947 4.24207 3.77947C4.40876 3.77947 4.54485 3.64531 4.54485 3.48098V2.67105C4.87823 2.79352 5.118 3.11033 5.118 3.48098C5.118 3.95719 4.72513 4.34445 4.24209 4.34445C3.75902 4.34445 3.36619 3.95716 3.36619 3.48098C3.36619 3.11046 3.60436 2.79353 3.93934 2.67105H3.93928ZM14.3927 12.4883C14.3927 13.543 13.5218 14.3997 12.4537 14.3997H2.54452C1.47464 14.3997 0.605558 13.5412 0.605558 12.4883V5.68897H14.3928V12.4896L14.3927 12.4883Z" fill="#B4B4B4"/>
<path d="M6.50259 12.1057C6.56048 12.1762 6.64713 12.2164 6.73733 12.2164H6.74419C6.83768 12.2147 6.92617 12.1694 6.98064 12.0939L10.4657 7.41427C10.5643 7.28179 10.5354 7.09407 10.4011 6.99683C10.2667 6.89958 10.0762 6.92805 9.9776 7.06053L6.72558 11.4283L5.05369 9.40454C4.94819 9.27713 4.75776 9.25698 4.62679 9.36099C4.49756 9.46499 4.47711 9.65271 4.58261 9.78182L6.50112 12.1058L6.50259 12.1057Z" fill="#B4B4B4"/>
</svg>
