<svg width="15" height="15" viewBox="0 0 15 15" fill="none" xmlns="http://www.w3.org/2000/svg">
<path fill-rule="evenodd" clip-rule="evenodd" d="M12.3215 13.6364V12.9545C12.3215 12.5783 12.5616 12.2728 12.8572 12.2728C13.1529 12.2728 13.3929 12.5783 13.3929 12.9545V14.3181C13.3929 14.6949 13.1532 15 12.8572 15H0.535653C0.239778 15 0 14.6949 0 14.3181V2.7272C0 2.35047 0.239785 2.04547 0.535653 2.04547H3.75001C3.86605 2.04547 3.97876 2.09318 4.07154 2.18182L6.07154 4.09084H12.8572C13.1532 4.09084 13.393 4.39602 13.393 4.77275V10.2272C13.393 10.6034 13.1529 10.9089 12.8572 10.9089C12.5616 10.9089 12.3215 10.6034 12.3215 10.2272V5.45439H5.89283C5.77693 5.45439 5.66408 5.40668 5.57143 5.31804L3.5713 3.40901H1.07137V13.6362L12.3215 13.6364Z" fill="#B4B4B4"/>
<path fill-rule="evenodd" clip-rule="evenodd" d="M3.57111 3.40916H2.14266C1.84665 3.40916 1.60687 3.10398 1.60687 2.72726V0.681901C1.60687 0.305171 1.84666 0 2.14266 0H5.35702C5.47292 0 5.58577 0.0478754 5.67841 0.136346L7.67855 2.04555H14.4642C14.6117 2.04555 14.7526 2.12286 14.8539 2.25954C14.9552 2.39622 15.0077 2.58011 14.9991 2.76722L14.6838 9.58536C14.6664 9.96108 14.4128 10.248 14.1175 10.2262C13.8223 10.204 13.5968 9.8809 13.6142 9.50551L13.896 3.40928H7.49992C7.38388 3.40928 7.27116 3.36157 7.17839 3.27293L5.17839 1.36373H2.67832V2.04563H3.74977C3.8658 2.04563 3.97852 2.09334 4.07129 2.18198L6.07129 4.09101H12.857C13.153 4.09101 13.3927 4.39618 13.3927 4.77291V10.2273C13.3927 10.6036 13.1527 10.9091 12.857 10.9091C12.5613 10.9091 12.3213 10.6035 12.3213 10.2273V5.45455H5.89258C5.77668 5.45455 5.66383 5.40684 5.57119 5.3182L3.57111 3.40916Z" fill="#B4B4B4"/>
<path fill-rule="evenodd" clip-rule="evenodd" d="M13.4233 13.6363L13.488 12.2328C13.5054 11.8571 13.7592 11.5702 14.0543 11.592C14.3495 11.6141 14.575 11.9373 14.5576 12.3126L14.4634 14.358C14.4465 14.7187 14.212 15 13.9284 15H12.8569C12.5611 15 12.3213 14.6948 12.3213 14.3181V12.9544C12.3213 12.5782 12.5613 12.2727 12.8569 12.2727C13.1527 12.2727 13.3927 12.5782 13.3927 12.9544V13.6363H13.4233Z" fill="#B4B4B4"/>
</svg>
