<svg width="15" height="15" viewBox="0 0 15 15" fill="none" xmlns="http://www.w3.org/2000/svg">
<path d="M12.2045 5.94578C12.4634 5.5711 12.6093 5.12432 12.6093 4.66164C12.6093 3.40931 11.5909 2.3909 10.3385 2.3909C9.64995 2.3909 9.01754 2.71454 8.59573 3.22885C7.99731 2.70815 7.21787 2.39081 6.36459 2.39081C4.66274 2.39081 3.24799 3.64542 2.9975 5.27872C1.68383 5.52683 0.687622 6.68315 0.687622 8.06775C0.687622 9.63285 1.96101 10.9062 3.52611 10.9062H10.3385C11.9036 10.9062 13.177 9.63285 13.177 8.06775C13.1769 7.21964 12.7955 6.46627 12.2045 5.94578H12.2045ZM9.33881 4.13875C9.5313 3.76923 9.91561 3.52627 10.3386 3.52627C10.9648 3.52627 11.4739 4.03554 11.4739 4.66164C11.4739 4.92622 11.3831 5.17536 11.2179 5.37461C11.1742 5.35984 11.1294 5.35412 11.0856 5.34165C11.0034 5.31899 10.9227 5.2945 10.8381 5.27974C10.6729 5.24918 10.5066 5.22927 10.3386 5.22927H9.7238C9.69084 5.03403 9.64037 4.84269 9.57388 4.65707C9.5455 4.57707 9.50407 4.50441 9.46997 4.42773C9.42682 4.33068 9.391 4.23133 9.33881 4.13875ZM10.3386 9.77078H3.52617C2.58717 9.77078 1.82305 9.00666 1.82305 8.06766C1.82305 7.12867 2.58717 6.36455 3.52617 6.36455C3.8395 6.36455 4.09391 6.11026 4.09391 5.7968C4.09391 4.54448 5.11233 3.52606 6.36465 3.52606C7.14354 3.52606 7.83099 3.92066 8.24091 4.5201C8.25396 4.53945 8.263 4.55982 8.27559 4.57973C8.33464 4.67231 8.38854 4.76936 8.43397 4.87041C8.4516 4.90955 8.46579 4.95041 8.48112 4.99023C8.51523 5.07938 8.54418 5.17128 8.56684 5.26557C8.57645 5.30586 8.58733 5.34557 8.59408 5.38597C8.61834 5.52043 8.63539 5.65673 8.63539 5.79691C8.63539 6.11024 8.88968 6.36466 9.20314 6.36466H10.3385C10.5895 6.36466 10.8403 6.42542 11.0844 6.5457C11.0862 6.54628 11.0879 6.5457 11.0896 6.54685C11.6509 6.82551 12.0415 7.39953 12.0415 8.06765C12.0415 9.00664 11.2774 9.77076 10.3385 9.77076L10.3386 9.77078Z" fill="#B4B4B4"/>
<mask id="mask0_50_30" style="mask-type:luminance" maskUnits="userSpaceOnUse" x="9" y="0" width="2" height="2">
<path d="M9.75586 0.119812H10.9277V1.84557H9.75586V0.119812Z" fill="white"/>
</mask>
<g mask="url(#mask0_50_30)">
<path d="M10.3386 1.82335C10.6519 1.82335 10.9063 1.56907 10.9063 1.25561L10.9062 0.687983C10.9062 0.374653 10.6519 0.120239 10.3384 0.120239C10.0251 0.120239 9.77069 0.374527 9.77069 0.687983V1.25573C9.77081 1.56894 10.0251 1.82335 10.3386 1.82335Z" fill="#B4B4B4"/>
</g>
<path d="M12.7465 2.82099C12.8918 2.82099 13.0372 2.76537 13.1478 2.6547L13.5492 2.25337C13.7712 2.03135 13.7712 1.67259 13.5492 1.45069C13.3272 1.22868 12.9684 1.22868 12.7465 1.45069L12.3452 1.85203C12.1231 2.07404 12.1231 2.43281 12.3452 2.6547C12.4559 2.76537 12.6012 2.82099 12.7465 2.82099Z" fill="#B4B4B4"/>
<mask id="mask1_50_30" style="mask-type:luminance" maskUnits="userSpaceOnUse" x="13" y="4" width="2" height="2">
<path d="M13.1543 4.07227H14.8799V5.24414H13.1543V4.07227Z" fill="white"/>
</mask>
<g mask="url(#mask1_50_30)">
<path d="M14.3124 4.09363H13.7447C13.4314 4.09363 13.1769 4.34792 13.1769 4.66137C13.1769 4.9747 13.4312 5.22912 13.7447 5.22912H14.3124C14.6258 5.22912 14.8802 4.97483 14.8802 4.66137C14.8801 4.34792 14.6258 4.09363 14.3124 4.09363Z" fill="#B4B4B4"/>
</g>
</svg>
