<svg width="15" height="15" viewBox="0 0 15 15" fill="none" xmlns="http://www.w3.org/2000/svg">
<path d="M13.465 7.56006C13.4639 8.74481 13.1255 9.90355 12.4911 10.8948C11.8569 11.8861 10.9539 12.6668 9.89283 13.1416C8.83184 13.6164 7.65855 13.7648 6.51651 13.5685L6.43054 14.0909C7.81831 14.3307 9.24472 14.1013 10.4937 13.4373C11.7426 12.7735 12.746 11.7114 13.3518 10.4119C13.9577 9.11238 14.1331 7.64617 13.8514 6.23545C13.5698 4.82472 12.8465 3.54638 11.791 2.59406L11.4484 2.99144H11.4483C12.0818 3.56324 12.5892 4.26625 12.9369 5.05389C13.2846 5.84153 13.4648 6.69569 13.4653 7.55999L13.465 7.56006Z" fill="#B4B4B4"/>
<path d="M1.03567 7.56005C1.03683 9.06436 1.53745 10.5237 2.45541 11.6991L2.85966 11.368C2.00939 10.2899 1.54824 8.94514 1.5535 7.56006C1.5553 5.94467 2.18337 4.39608 3.29989 3.25372C4.4165 2.11157 5.93032 1.46903 7.50944 1.46718C7.75833 1.46718 8.0071 1.48296 8.25407 1.51437L8.31832 0.988572C8.05002 0.954527 7.7798 0.937439 7.50944 0.937439C5.79299 0.939411 4.14759 1.63769 2.93377 2.87921C1.72012 4.12077 1.03755 5.8041 1.03564 7.56009L1.03567 7.56005Z" fill="#B4B4B4"/>
<path d="M2.64689 13.2895C2.6528 13.2969 2.66167 13.3002 2.66835 13.3067L2.66501 13.3102L3.49366 14.1579C3.66675 14.3362 3.89636 14.4456 4.14116 14.4664C4.38597 14.4871 4.62995 14.4179 4.82939 14.271L8.24584 11.7751L11.7258 10.7279C11.8557 10.6893 11.9347 10.5548 11.907 10.4193L11.5012 8.44849L12.7604 8.07951H12.7605C12.832 8.05847 12.8912 8.00721 12.9231 7.93846C12.955 7.86984 12.9565 7.79045 12.9272 7.72052L9.8198 0.30313H9.81723C9.77945 0.209273 9.69194 0.146309 9.59287 0.141446C9.49368 0.136582 9.40077 0.190738 9.35426 0.280388L2.62168 12.9958C2.57118 13.0901 2.58133 13.2061 2.64725 13.2896L2.64689 13.2895ZM4.52795 13.84C4.42824 13.9134 4.30616 13.9481 4.1837 13.9377C4.06125 13.9273 3.94637 13.8725 3.85989 13.7834L3.34012 13.2511L6.73092 12.231L4.52795 13.84ZM11.3934 7.92886L10.3732 2.97104L12.3346 7.65326L11.3934 7.92886ZM9.47279 1.16835L11.3497 10.2888L3.37209 12.6894L9.47279 1.16835Z" fill="#B4B4B4"/>
<path d="M6.78767 4.19563L6.67742 3.67798C5.56235 3.92892 4.61159 4.6686 4.07719 5.70072C3.54291 6.73273 3.47903 7.95299 3.90269 9.03756L4.38325 8.84026L4.38338 8.84013C4.22378 8.43301 4.14232 7.99844 4.14309 7.55993C4.14617 6.77556 4.40946 6.01565 4.8899 5.40441C5.37046 4.79317 6.03954 4.36701 6.78763 4.19559L6.78767 4.19563Z" fill="#B4B4B4"/>
<path d="M9.25742 14.4868L9.38694 15C10.9115 14.5999 12.2743 13.7189 13.282 12.4818C14.2897 11.2447 14.8906 9.71455 15 8.10818L14.4835 8.07111C14.3816 9.5665 13.8218 10.9911 12.8838 12.1426C11.9458 13.2942 10.677 14.1144 9.2575 14.4867L9.25742 14.4868Z" fill="#B4B4B4"/>
<path d="M6.26036 0.521593L6.16874 0C4.57538 0.300363 3.11916 1.11799 2.01577 2.33152C0.912251 3.54495 0.22031 5.08987 0.0424805 6.73713L0.557218 6.79326L0.557346 6.79339C0.722847 5.25977 1.36699 3.82159 2.39419 2.69199C3.4215 1.56232 4.77712 0.801197 6.26032 0.521624L6.26036 0.521593Z" fill="#B4B4B4"/>
<path d="M0.522198 7.81548C0.519371 7.7307 0.517829 7.64552 0.517829 7.55994C0.517829 7.47424 0.519243 7.38906 0.522198 7.30427L0.00436884 7.28574C0.00154193 7.37683 0 7.46793 0 7.55994C0 7.65182 0.00154157 7.74305 0.00462533 7.83414L0.522198 7.81548Z" fill="#B4B4B4"/>
</svg>
