<svg width="15" height="15" viewBox="0 0 15 15" fill="none" xmlns="http://www.w3.org/2000/svg">
<path d="M13.3929 0H1.60708C1.18097 0 0.772101 0.169337 0.470658 0.470658C0.169334 0.772114 0 1.18097 0 1.60708V13.3929C0 13.8192 0.169337 14.2279 0.470658 14.5293C0.772114 14.8307 1.18097 15 1.60708 15H13.3929C13.8192 15 14.2279 14.8307 14.5293 14.5293C14.8307 14.2279 15 13.8192 15 13.3929V1.60708C15 1.18097 14.8307 0.772101 14.5293 0.470658C14.2279 0.169334 13.8192 0 13.3929 0ZM1.0715 13.3929V1.60708C1.0715 1.46499 1.12799 1.32875 1.22834 1.22826C1.32883 1.12791 1.46507 1.07142 1.60716 1.07142H4.8215V13.9288H1.60716C1.46507 13.9288 1.32884 13.8724 1.22834 13.7719C1.12799 13.6714 1.0715 13.5352 1.0715 13.3931V13.3929ZM13.9288 13.3929C13.9288 13.535 13.8725 13.6712 13.772 13.7717C13.6715 13.8722 13.5353 13.9286 13.3932 13.9286H5.89301V1.07124H13.3932C13.5353 1.07124 13.6715 1.12773 13.772 1.22809C13.8725 1.32857 13.9288 1.46481 13.9288 1.60691V13.3929Z" fill="#B4B4B4"/>
</svg>
