<svg width="15" height="15" viewBox="0 0 15 15" fill="none" xmlns="http://www.w3.org/2000/svg">
<mask id="mask0_50_25" style="mask-type:luminance" maskUnits="userSpaceOnUse" x="0" y="0" width="15" height="15">
<path d="M0 0H15V15H0V0Z" fill="white"/>
</mask>
<g mask="url(#mask0_50_25)">
<path d="M6.09104 1.50167L6.73627 0.426349C6.98572 0.0104824 7.52513 -0.124332 7.941 0.125092C8.06455 0.199198 8.16802 0.302665 8.24226 0.426349L8.88749 1.50167C9.54271 1.65423 10.1654 1.91321 10.7332 2.26669L11.9507 1.9624C12.4211 1.84472 12.8978 2.13081 13.0155 2.60129C13.0504 2.74116 13.0504 2.88738 13.0155 3.02726L12.7111 4.24455C13.0646 4.81252 13.3237 5.43509 13.4761 6.09043L14.5516 6.73566C14.9674 6.98511 15.1023 7.52452 14.8527 7.94039C14.7786 8.06394 14.6751 8.16741 14.5516 8.24165L13.4761 8.88688C13.3237 9.5421 13.0646 10.1648 12.7111 10.7326L13.0155 11.9501C13.1331 12.4205 12.847 12.8972 12.3765 13.0149C12.2368 13.0498 12.0904 13.0498 11.9507 13.0149L10.7332 12.7105C10.1654 13.064 9.54271 13.3231 8.88749 13.4755L8.24226 14.551C7.99269 14.9668 7.45328 15.1016 7.03741 14.8521C6.91386 14.778 6.81039 14.6745 6.73627 14.551L6.09104 13.4755C5.4357 13.3231 4.81313 13.064 4.24516 12.7105L3.02787 13.0149C2.5574 13.1325 2.08056 12.8464 1.96301 12.3759C1.92801 12.2361 1.92801 12.0898 1.96301 11.9501L2.2673 10.7326C1.91379 10.1648 1.65484 9.5421 1.50228 8.88688L0.426959 8.24165C0.0110927 7.99208 -0.123721 7.45267 0.125702 7.0368C0.199808 6.91325 0.303276 6.80978 0.426959 6.73566L1.50228 6.09043C1.65484 5.43509 1.91382 4.81252 2.2673 4.24455L1.96301 3.02726C1.84533 2.55679 2.13142 2.07995 2.6019 1.9624C2.74177 1.9274 2.88799 1.9274 3.02787 1.9624L4.24516 2.26669C4.81313 1.91318 5.4357 1.65423 6.09104 1.50167ZM4.56707 3.10396C4.46408 3.17266 4.33689 3.19474 4.21675 3.16479L2.81482 2.81423L3.16539 4.21615C3.19534 4.3363 3.17326 4.46349 3.10455 4.56648C2.72332 5.13724 2.45661 5.77722 2.32192 6.45474C2.29772 6.57618 2.22338 6.68176 2.11721 6.74553L0.878664 7.4886L2.11721 8.23179C2.22338 8.29545 2.29772 8.40115 2.32192 8.52258C2.45663 9.19999 2.72335 9.84006 3.10455 10.4109C3.17326 10.5137 3.19534 10.641 3.16539 10.7612L2.81482 12.163L4.21675 11.8125C4.33689 11.7825 4.46409 11.8046 4.56707 11.8734C5.13784 12.2546 5.77781 12.5212 6.45534 12.6559C6.57678 12.6801 6.68236 12.7544 6.74613 12.8607L7.4892 14.0991L8.23239 12.8607C8.29605 12.7544 8.40174 12.6801 8.52318 12.6559C9.20059 12.5212 9.84066 12.2546 10.4114 11.8734C10.5143 11.8045 10.6416 11.7825 10.7618 11.8125L12.1636 12.163L11.8131 10.7612C11.7831 10.641 11.8051 10.5137 11.874 10.4109C12.2552 9.84009 12.5218 9.20002 12.6565 8.52258C12.6807 8.40115 12.755 8.29545 12.8613 8.23179L14.0997 7.4886L12.8613 6.74553C12.755 6.68176 12.6807 6.57618 12.6565 6.45474C12.5218 5.77722 12.2552 5.13727 11.874 4.56648C11.8051 4.46348 11.7831 4.33629 11.8131 4.21615L12.1636 2.81423L10.7618 3.16479C10.6416 3.19474 10.5143 3.17266 10.4114 3.10396C9.84068 2.72272 9.20062 2.45601 8.52318 2.32132C8.40174 2.29713 8.29605 2.22279 8.23239 2.11662L7.4892 0.878066L6.74613 2.11662C6.68236 2.22278 6.57678 2.29713 6.45534 2.32132C5.77781 2.45603 5.13787 2.72275 4.56707 3.10396ZM7.48917 11.8792C5.06445 11.8792 3.0987 9.91353 3.0987 7.48871C3.0987 5.06399 5.06448 3.09824 7.48917 3.09824C9.91402 3.09824 11.8796 5.06402 11.8796 7.48871C11.8796 9.91356 9.91399 11.8792 7.48917 11.8792ZM7.48917 11.0012C9.42909 11.0012 11.0017 9.4286 11.0017 7.48862C11.0017 5.5488 9.42915 3.97637 7.48917 3.97637C5.54935 3.97637 3.97692 5.54895 3.97692 7.48862C3.97692 9.42854 5.5495 11.0012 7.48917 11.0012Z" fill="#B4B4B4"/>
</g>
</svg>
