<svg width="15" height="15" viewBox="0 0 15 15" fill="none" xmlns="http://www.w3.org/2000/svg">
<path d="M3.45809 2.18301C3.45809 2.58484 3.16309 2.91071 2.79936 2.91071C2.43561 2.91071 2.14062 2.58482 2.14062 2.18301C2.14062 1.78117 2.43563 1.45544 2.79936 1.45544C3.16311 1.45544 3.45809 1.7812 3.45809 2.18301Z" fill="#B4B4B4"/>
<path d="M10.2543 2.18301C10.2543 2.58484 9.95941 2.91071 9.59568 2.91071C9.23196 2.91071 8.93695 2.58482 8.93695 2.18301C8.93695 1.78117 9.23196 1.45544 9.59568 1.45544C9.95941 1.45544 10.2543 1.7812 10.2543 2.18301Z" fill="#B4B4B4"/>
<path d="M8.08382 11.1465H1.63186C1.21262 11.1465 0.868338 10.7661 0.868338 10.303V4.3825H11.5272V7.35929C11.677 7.34274 11.8117 7.32618 11.9613 7.32618C12.111 7.32618 12.2458 7.34274 12.3954 7.35929L12.3955 1.80267C12.3955 0.810359 11.6619 0 10.7637 0H1.6317C0.733558 0 0 0.810359 0 1.80267V10.3031C0 11.2954 0.733557 12.1058 1.63182 12.1058L8.08378 12.1056C8.0688 11.9568 8.05381 11.7914 8.05381 11.6425C8.05393 11.4772 8.06892 11.3118 8.08378 11.1464L8.08382 11.1465ZM0.868085 1.80267C0.868085 1.33954 1.21237 0.959213 1.6316 0.959213H10.7636C11.1828 0.959213 11.5271 1.33954 11.5271 1.80267V3.40682H0.868212L0.868085 1.80267Z" fill="#B4B4B4"/>
<path d="M3.92219 5.95374H2.32036C2.08084 5.95374 1.88629 6.16867 1.88629 6.43325C1.88629 6.69785 2.08086 6.91277 2.32036 6.91277H3.92219C4.16171 6.91277 4.35627 6.69784 4.35627 6.43325C4.35627 6.16866 4.1617 5.95374 3.92219 5.95374Z" fill="#B4B4B4"/>
<path d="M3.92219 8.18622H2.32036C2.08084 8.18622 1.88629 8.40115 1.88629 8.66574C1.88629 8.93032 2.08086 9.14526 2.32036 9.14526H3.92219C4.16171 9.14526 4.35627 8.93032 4.35627 8.66574C4.35627 8.40127 4.1617 8.18622 3.92219 8.18622Z" fill="#B4B4B4"/>
<path d="M7.00585 5.95374H5.38915C5.14963 5.95374 4.95508 6.16867 4.95508 6.43325C4.95495 6.69785 5.14964 6.91291 5.38915 6.91291H6.99098C7.2305 6.91291 7.42505 6.69798 7.42505 6.43339C7.42505 6.16866 7.24535 5.95374 7.00582 5.95374H7.00585Z" fill="#B4B4B4"/>
<path d="M7.00585 8.18622H5.38915C5.14963 8.18622 4.95508 8.40115 4.95508 8.66574C4.95508 8.93032 5.14964 9.14526 5.38915 9.14526H6.99098C7.2305 9.14526 7.42505 8.93032 7.42505 8.66574C7.42505 8.40127 7.24535 8.18622 7.00582 8.18622H7.00585Z" fill="#B4B4B4"/>
<path d="M10.0748 5.95374H8.47301C8.23349 5.95374 8.03894 6.16867 8.03894 6.43325C8.03894 6.69785 8.2335 6.91291 8.47301 6.91291H10.0748C10.3144 6.91291 10.5089 6.69798 10.5089 6.43339C10.5089 6.16866 10.3144 5.95374 10.0748 5.95374Z" fill="#B4B4B4"/>
<path d="M11.961 8.28571C10.2844 8.28571 8.92206 9.79067 8.92206 11.6429C8.92206 13.4951 10.2844 15 11.961 15C13.6377 15 15 13.4951 15 11.6429C15 9.79053 13.6378 8.28571 11.961 8.28571ZM11.961 14.0409C10.7635 14.0409 9.79036 12.966 9.79036 11.643C9.79036 10.32 10.7634 9.24502 11.961 9.24502C13.1586 9.24502 14.1317 10.32 14.1317 11.643C14.1317 12.9659 13.1588 14.0409 11.961 14.0409Z" fill="#B4B4B4"/>
<path d="M12.5301 11.5766L12.3954 11.7255V10.3528C12.3954 10.0882 12.2008 9.87329 11.9613 9.87329C11.7216 9.87329 11.5271 10.0882 11.5271 10.3528V11.7255L11.3923 11.5766C11.2276 11.3946 10.9433 11.3946 10.7786 11.5766C10.6139 11.7586 10.6139 12.0727 10.7786 12.2546L11.6469 13.2138C11.7217 13.2965 11.8414 13.3461 11.9612 13.3461C12.081 13.3461 12.1857 13.2965 12.2755 13.2138L13.1438 12.2546C13.3085 12.0727 13.3085 11.7585 13.1438 11.5766C12.9642 11.3946 12.6948 11.3946 12.5302 11.5766H12.5301Z" fill="#B4B4B4"/>
</svg>
